<mxfile host="app.diagrams.net" modified="2023-03-25T17:11:15.437Z" agent="5.0 (Macintosh; Intel Mac OS X 10_15_7) AppleWebKit/537.36 (KHTML, like Gecko) Chrome/110.0.0.0 Safari/537.36" etag="m2PKXoUGSAw_LciVwHRh" version="21.0.6" type="github">
  <diagram id="prtHgNgQTEPvFCAcTncT" name="Page-1">
    <mxGraphModel dx="1085" dy="627" grid="1" gridSize="10" guides="1" tooltips="1" connect="1" arrows="1" fold="1" page="1" pageScale="1" pageWidth="583" pageHeight="827" math="0" shadow="0">
      <root>
        <mxCell id="0" />
        <mxCell id="1" parent="0" />
        <mxCell id="kusgDuW9diChMTDTtla2-3" value="" style="edgeStyle=orthogonalEdgeStyle;rounded=0;orthogonalLoop=1;jettySize=auto;html=1;" edge="1" parent="1" source="kusgDuW9diChMTDTtla2-1" target="kusgDuW9diChMTDTtla2-2">
          <mxGeometry relative="1" as="geometry" />
        </mxCell>
        <mxCell id="kusgDuW9diChMTDTtla2-5" value="" style="edgeStyle=orthogonalEdgeStyle;rounded=0;orthogonalLoop=1;jettySize=auto;html=1;" edge="1" parent="1" source="kusgDuW9diChMTDTtla2-1" target="kusgDuW9diChMTDTtla2-4">
          <mxGeometry relative="1" as="geometry" />
        </mxCell>
        <mxCell id="kusgDuW9diChMTDTtla2-7" value="" style="edgeStyle=orthogonalEdgeStyle;rounded=0;orthogonalLoop=1;jettySize=auto;html=1;" edge="1" parent="1" source="kusgDuW9diChMTDTtla2-1" target="kusgDuW9diChMTDTtla2-6">
          <mxGeometry relative="1" as="geometry" />
        </mxCell>
        <mxCell id="kusgDuW9diChMTDTtla2-1" value="系统" style="rounded=1;whiteSpace=wrap;html=1;" vertex="1" parent="1">
          <mxGeometry x="555" y="80" width="120" height="60" as="geometry" />
        </mxCell>
        <mxCell id="kusgDuW9diChMTDTtla2-9" value="" style="edgeStyle=orthogonalEdgeStyle;rounded=0;orthogonalLoop=1;jettySize=auto;html=1;" edge="1" parent="1" source="kusgDuW9diChMTDTtla2-2" target="kusgDuW9diChMTDTtla2-8">
          <mxGeometry relative="1" as="geometry" />
        </mxCell>
        <mxCell id="kusgDuW9diChMTDTtla2-12" value="" style="edgeStyle=orthogonalEdgeStyle;rounded=0;orthogonalLoop=1;jettySize=auto;html=1;" edge="1" parent="1" source="kusgDuW9diChMTDTtla2-2" target="kusgDuW9diChMTDTtla2-11">
          <mxGeometry relative="1" as="geometry" />
        </mxCell>
        <mxCell id="kusgDuW9diChMTDTtla2-13" style="edgeStyle=orthogonalEdgeStyle;rounded=0;orthogonalLoop=1;jettySize=auto;html=1;exitX=0.5;exitY=1;exitDx=0;exitDy=0;" edge="1" parent="1" source="kusgDuW9diChMTDTtla2-2" target="kusgDuW9diChMTDTtla2-14">
          <mxGeometry relative="1" as="geometry">
            <mxPoint x="515" y="410" as="targetPoint" />
          </mxGeometry>
        </mxCell>
        <mxCell id="kusgDuW9diChMTDTtla2-2" value="数据上传" style="rounded=1;whiteSpace=wrap;html=1;" vertex="1" parent="1">
          <mxGeometry x="375" y="220" width="120" height="60" as="geometry" />
        </mxCell>
        <mxCell id="kusgDuW9diChMTDTtla2-4" value="数据访问" style="whiteSpace=wrap;html=1;rounded=1;" vertex="1" parent="1">
          <mxGeometry x="555" y="220" width="120" height="60" as="geometry" />
        </mxCell>
        <mxCell id="kusgDuW9diChMTDTtla2-16" value="" style="edgeStyle=orthogonalEdgeStyle;rounded=0;orthogonalLoop=1;jettySize=auto;html=1;" edge="1" parent="1" source="kusgDuW9diChMTDTtla2-6" target="kusgDuW9diChMTDTtla2-15">
          <mxGeometry relative="1" as="geometry" />
        </mxCell>
        <mxCell id="kusgDuW9diChMTDTtla2-6" value="管理员模块" style="whiteSpace=wrap;html=1;rounded=1;" vertex="1" parent="1">
          <mxGeometry x="755" y="220" width="120" height="60" as="geometry" />
        </mxCell>
        <mxCell id="kusgDuW9diChMTDTtla2-8" value="访问策略管理" style="whiteSpace=wrap;html=1;rounded=1;" vertex="1" parent="1">
          <mxGeometry x="255" y="340" width="90" height="40" as="geometry" />
        </mxCell>
        <mxCell id="kusgDuW9diChMTDTtla2-11" value="病历管理" style="whiteSpace=wrap;html=1;rounded=1;" vertex="1" parent="1">
          <mxGeometry x="345" y="400" width="90" height="60" as="geometry" />
        </mxCell>
        <mxCell id="kusgDuW9diChMTDTtla2-14" value="" style="rounded=1;whiteSpace=wrap;html=1;" vertex="1" parent="1">
          <mxGeometry x="455" y="380" width="95" height="40" as="geometry" />
        </mxCell>
        <mxCell id="kusgDuW9diChMTDTtla2-15" value="用户管理" style="whiteSpace=wrap;html=1;rounded=1;" vertex="1" parent="1">
          <mxGeometry x="755" y="360" width="85" height="70" as="geometry" />
        </mxCell>
      </root>
    </mxGraphModel>
  </diagram>
</mxfile>
